<svg fill="none" height="512" viewBox="0 0 24 24" width="512" xmlns="http://www.w3.org/2000/svg"><g fill="rgb(0,0,0)"><path d="m6.5 1.99112c-1.38071 0-2.5 1.11829-2.5 2.49778v15.0044c0 1.3795 1.11929 2.4978 2.5 2.4978h11.1067c1.3807 0 2.5-1.1183 2.5-2.4978v-1.8759c0-.4073-.4272-.6736-.7933-.4945-.121.0591-.2067.177-.2067.3116v2.0588c0 .8277-.6716 1.4987-1.5 1.4987h-11.1067c-.82843 0-1.5-.671-1.5-1.4987v-15.0044c0-.82769.67157-1.49867 1.5-1.49867h11.1067c.8284 0 1.5.67098 1.5 1.49867v2.81036c0 .47335.4965.78287.9221.57477.0468-.02292.0779-.06978.0779-.12192v-3.26321c0-1.37948-1.1193-2.49778-2.5-2.49778z"/><path clip-rule="evenodd" d="m15.8333 19.6107c-.3327.2195-.7761-.0191-.7756-.4174l.0027-2.2366 4.1206-7.64264c.3929-.72868 1.3027-1.00117 2.032-.60861.7293.39255 1.0021 1.30145.6092 2.03015l-4.1207 7.6423zm1.1071-1.928-.8816.5818.0013-1.0556 4.0013-7.42098c.131-.2429.4342-.33373.6773-.20288s.334.43386.2031.67676z" fill-rule="evenodd"/><path d="m8 7.99467c-.27614 0-.5.22365-.5.49955s.22386.49956.5.49956h8c.2761 0 .5-.22366.5-.49956s-.2239-.49955-.5-.49955z"/><path d="m7.5 5.49688c0-.2759.22386-.49955.5-.49955h8c.2761 0 .5.22365.5.49955s-.2239.49956-.5.49956h-8c-.27614 0-.5-.22366-.5-.49956z"/><path d="m8 10.992c-.27614 0-.5.2237-.5.4996s.22386.4995.5.4995h8c.2761 0 .5-.2236.5-.4995s-.2239-.4996-.5-.4996z"/><path d="m7.5 14.4889c0-.2759.22386-.4996.5-.4996h6c.2761 0 .5.2237.5.4996s-.2239.4996-.5.4996h-6c-.27614 0-.5-.2237-.5-.4996z"/><path d="m8 16.9867c-.27614 0-.5.2236-.5.4995s.22386.4996.5.4996h6c.2761 0 .5-.2237.5-.4996s-.2239-.4995-.5-.4995z"/></g></svg>