<?xml version="1.0" encoding="utf-8"?>
<!-- Generator: Adobe Illustrator 23.0.1, SVG Export Plug-In . SVG Version: 6.00 Build 0)  -->
<svg version="1.1" id="Layer_1" xmlns="http://www.w3.org/2000/svg" xmlns:xlink="http://www.w3.org/1999/xlink" x="0px" y="0px"
	 viewBox="0 0 64 64" style="enable-background:new 0 0 64 64;" xml:space="preserve">
<g>
	<path d="M4.7,27.3h10.7v2.7H6v11.7h3.3l-0.7-1.7c0-0.1,0-0.1,0-0.2c0,0,0.1-0.1,0.2,0l6.2,3.1c0.1,0,0.1,0.1,0.1,0.2
		c0,0.1,0,0.1-0.1,0.2l-6.2,3.1c-0.1,0-0.1,0-0.2,0c0,0-0.1-0.1,0-0.2l0.7-1.7H4.7c-0.7,0-1.3-0.6-1.3-1.3V28.6
		C3.3,27.9,3.9,27.3,4.7,27.3z"/>
	<path d="M33.1,44.3v-2.7h10.7c0.7,0,1.3,0.6,1.3,1.3v14.3c0,0.7-0.6,1.3-1.3,1.3h-4.7l0.7,1.7c0,0.1,0,0.1,0,0.2c0,0-0.1,0.1-0.2,0
		l-6.2-3.1c-0.1,0-0.1-0.1-0.1-0.2s0-0.1,0.1-0.2l6.2-3.1c0.1,0,0.1,0,0.2,0c0,0,0.1,0.1,0,0.2l-0.7,1.7h3.3V44.3H33.1z"/>
	<path d="M18.4,23.6v10c0,0.4,0.4,0.8,0.8,0.8h10c0.4,0,0.8-0.4,0.8-0.8v-10c0-0.4-0.4-0.8-0.8-0.8h-10
		C18.8,22.8,18.4,23.1,18.4,23.6z M21.1,25.5h6.3v6.3h-6.3V25.5z"/>
	<path d="M18.4,37.9v10c0,0.4,0.4,0.8,0.8,0.8h10c0.4,0,0.8-0.4,0.8-0.8v-10c0-0.4-0.4-0.8-0.8-0.8h-10
		C18.8,37.1,18.4,37.4,18.4,37.9z M21.1,39.7h6.3V46h-6.3V39.7z"/>
	<path d="M18.4,52.2v10c0,0.4,0.4,0.8,0.8,0.8h10c0.4,0,0.8-0.4,0.8-0.8v-10c0-0.4-0.4-0.8-0.8-0.8h-10
		C18.8,51.4,18.4,51.7,18.4,52.2z M21.1,54h6.3v6.3h-6.3V54z"/>
	<path d="M38.5,1.8v13.5c0,0.4,0.4,0.8,0.8,0.8h20.5c0.4,0,0.8-0.4,0.8-0.8V1.8c0-0.4-0.4-0.8-0.8-0.8H39.3
		C38.9,1,38.5,1.4,38.5,1.8z M41.2,3.7H58v9.8H41.2V3.7z"/>
	<path d="M39.6,25.3c0.1,0,0.1,0,0.2,0c0,0,0.1,0.1,0,0.2l-0.7,1.7h9.2v-8.2h2.7v9.5c0,0.7-0.6,1.3-1.3,1.3H39.1l0.7,1.7
		c0,0.1,0,0.1,0,0.2c0,0-0.1,0.1-0.2,0l-6.2-3.1c-0.1,0-0.1-0.1-0.1-0.2s0-0.1,0.1-0.2L39.6,25.3z"/>
</g>
</svg>
