<svg id="Layer_1" enable-background="new 0 0 512 512" viewBox="0 0 512 512" xmlns="http://www.w3.org/2000/svg"><path d="m248.853 161.559h-44.27c-4.418 0-8 3.582-8 8v159.62c0 4.418 3.582 8 8 8h44.27c4.418 0 8-3.582 8-8v-159.62c0-4.418-3.582-8-8-8zm-8 159.62h-28.27v-143.62h28.27zm-86.291-84.93h-44.27c-4.418 0-8 3.582-8 8v84.93c0 4.418 3.582 8 8 8h44.27c4.418 0 8-3.582 8-8v-84.93c0-4.418-3.582-8-8-8zm-8 84.93h-28.27v-68.93h28.27zm-86.292-132.512h-44.27c-4.418 0-8 3.582-8 8v132.513c0 4.418 3.582 8 8 8h44.27c4.418 0 8-3.582 8-8v-132.513c0-4.419-3.582-8-8-8zm-8 132.512h-28.27v-116.512h28.27zm-14.135-171.954c9.658 0 18.233-4.709 23.561-11.948l41.587 15.459c-.059.759-.099 1.524-.099 2.299 0 16.124 13.118 29.242 29.242 29.242s29.242-13.118 29.242-29.242c0-3.75-.717-7.334-2.009-10.632l49.508-37.592c4.892 3.683 10.971 5.87 17.551 5.87 9.132 0 17.297-4.21 22.663-10.788l42.636 18.334c-.159 1.232-.25 2.485-.25 3.759 0 16.124 13.118 29.242 29.242 29.242s29.242-13.118 29.242-29.242c0-4.669-1.106-9.083-3.061-13.003l52.699-47.943c4.478 2.789 9.758 4.406 15.411 4.406 16.124 0 29.242-13.118 29.242-29.242s-13.116-29.242-29.24-29.242-29.242 13.118-29.242 29.242c0 4.67 1.106 9.084 3.061 13.003l-52.699 47.943c-4.478-2.789-9.759-4.406-15.412-4.406-9.132 0-17.297 4.21-22.663 10.788l-42.637-18.335c.159-1.232.25-2.485.25-3.759 0-16.124-13.118-29.242-29.242-29.242s-29.241 13.118-29.241 29.242c0 3.75.718 7.334 2.01 10.632l-49.508 37.592c-4.892-3.683-10.971-5.87-17.552-5.87-9.658 0-18.233 4.709-23.561 11.948l-41.587-15.459c.059-.759.099-1.524.099-2.299 0-16.124-13.118-29.242-29.242-29.242s-29.242 13.119-29.242 29.243 13.117 29.242 29.241 29.242zm377.167-124.263c7.302 0 13.242 5.94 13.242 13.242s-5.94 13.242-13.242 13.242-13.242-5.94-13.242-13.242 5.94-13.242 13.242-13.242zm-94.292 85.781c7.302 0 13.242 5.94 13.242 13.242s-5.94 13.242-13.242 13.242-13.242-5.94-13.242-13.242 5.94-13.242 13.242-13.242zm-94.292-40.547c7.302 0 13.242 5.94 13.242 13.242s-5.94 13.242-13.242 13.242c-7.301 0-13.241-5.94-13.241-13.242s5.94-13.242 13.241-13.242zm-94.292 71.596c7.302 0 13.242 5.94 13.242 13.242s-5.94 13.242-13.242 13.242-13.242-5.94-13.242-13.242 5.941-13.242 13.242-13.242zm-94.291-35.051c7.302 0 13.242 5.94 13.242 13.242s-5.94 13.242-13.242 13.242-13.242-5.94-13.242-13.242 5.94-13.242 13.242-13.242zm429.859 296.239c3.993 1.889 8.759.182 10.649-3.81 7.097-14.99 10.696-31.051 10.696-47.738 0-36.113-17.233-68.272-43.901-88.701v-151.244c0-4.418-3.582-8-8-8h-44.27c-4.418 0-8 3.582-8 8v128.514c-2.486-.166-4.991-.259-7.519-.259-9.13 0-18.004 1.109-26.503 3.186v-43.177c0-4.418-3.582-8-8-8h-44.271c-4.418 0-8 3.582-8 8v81.447c-15.571 19.201-24.917 43.645-24.917 70.235 0 61.586 50.104 111.69 111.69 111.69 4.418 0 8-3.582 8-8v-91.061zm-98.346-59.547h-87.353c3.859-46.396 40.957-83.494 87.353-87.353zm103.69 8c0 11.6-2.027 22.842-6.036 33.524l-81.654-38.591v-90.286c49.035 4.078 87.69 45.283 87.69 95.353zm-72.171-231.946h28.27v133.013c-8.801-4.626-18.289-8.11-28.27-10.258zm-66.022 88.264v40.402c-10.281 4.247-19.796 9.981-28.271 16.94v-57.342zm-52.833 151.682h87.337v87.359c-46.398-3.856-83.477-40.963-87.337-87.359zm221.22 73.537c-.715-1.999-2.195-3.631-4.114-4.538l-93.77-44.317c-2.479-1.171-5.384-.992-7.699.475-2.316 1.467-3.719 4.017-3.719 6.758v103.69c0 4.418 3.582 8 8 8 21.56 0 42.489-6.157 60.523-17.805 17.557-11.339 31.553-27.296 40.477-46.145.909-1.918 1.018-4.119.302-6.118zm-93.302 53.729v-82.721l74.807 35.355c-15.66 26.919-43.789 44.73-74.807 47.366z"/></svg>