<?xml version="1.0" encoding="UTF-8" standalone="no"?>
<!-- Created with Inkscape (http://www.inkscape.org/) -->

<svg
   version="1.1"
   id="svg147"
   xml:space="preserve"
   width="682.66669"
   height="682.66669"
   viewBox="0 0 682.66669 682.66669"
   xmlns="http://www.w3.org/2000/svg"
   xmlns:svg="http://www.w3.org/2000/svg"><defs
     id="defs151"><clipPath
       clipPathUnits="userSpaceOnUse"
       id="clipPath161"><path
         d="M 0,512 H 512 V 0 H 0 Z"
         id="path159" /></clipPath></defs><g
     id="g153"
     transform="matrix(1.3333333,0,0,-1.3333333,0,682.66667)"><g
       id="g155"><g
         id="g157"
         clip-path="url(#clipPath161)"><g
           id="g163"
           transform="translate(97.0205,219.6362)"><path
             d="m 0,0 c -9.324,-9.325 -12.904,-22.211 -10.757,-34.278 0.354,-1.992 1.938,-3.576 3.929,-3.93 12.068,-2.147 24.954,1.433 34.279,10.757 9.324,9.325 12.904,22.211 10.757,34.279 -0.354,1.991 -1.938,3.575 -3.929,3.93 C 22.211,12.905 9.325,9.325 0,0 Z"
             style="fill:none;stroke:#000000;stroke-width:15;stroke-linecap:round;stroke-linejoin:round;stroke-miterlimit:10;stroke-dasharray:none;stroke-opacity:1"
             id="path165" /></g><g
           id="g167"
           transform="translate(74.2983,219.6362)"><path
             d="m 0,0 c 9.325,-9.325 12.905,-22.211 10.757,-34.278 -0.354,-1.992 -1.938,-3.576 -3.929,-3.93 -12.068,-2.147 -24.954,1.433 -34.279,10.757 -9.324,9.325 -12.904,22.211 -10.757,34.279 0.354,1.991 1.938,3.575 3.93,3.93 C -22.21,12.905 -9.325,9.325 0,0 Z"
             style="fill:none;stroke:#000000;stroke-width:15;stroke-linecap:round;stroke-linejoin:round;stroke-miterlimit:10;stroke-dasharray:none;stroke-opacity:1"
             id="path169" /></g><g
           id="g171"
           transform="translate(85.6597,204.4951)"><path
             d="M 0,0 V -76.384"
             style="fill:none;stroke:#000000;stroke-width:15;stroke-linecap:round;stroke-linejoin:round;stroke-miterlimit:10;stroke-dasharray:none;stroke-opacity:1"
             id="path173" /></g><g
           id="g175"
           transform="translate(267.3613,219.6362)"><path
             d="m 0,0 c -9.325,-9.325 -12.905,-22.211 -10.758,-34.278 0.355,-1.992 1.939,-3.576 3.93,-3.93 12.068,-2.147 24.954,1.433 34.279,10.757 9.324,9.325 12.904,22.211 10.757,34.279 -0.354,1.991 -1.938,3.575 -3.93,3.93 C 22.21,12.905 9.324,9.325 0,0 Z"
             style="fill:none;stroke:#000000;stroke-width:15;stroke-linecap:round;stroke-linejoin:round;stroke-miterlimit:10;stroke-dasharray:none;stroke-opacity:1"
             id="path177" /></g><g
           id="g179"
           transform="translate(244.6387,219.6362)"><path
             d="m 0,0 c 9.325,-9.325 12.905,-22.211 10.758,-34.278 -0.355,-1.992 -1.939,-3.576 -3.93,-3.93 -12.068,-2.147 -24.954,1.433 -34.279,10.757 -9.324,9.325 -12.904,22.211 -10.757,34.279 0.354,1.991 1.938,3.575 3.93,3.93 C -22.21,12.905 -9.325,9.325 0,0 Z"
             style="fill:none;stroke:#000000;stroke-width:15;stroke-linecap:round;stroke-linejoin:round;stroke-miterlimit:10;stroke-dasharray:none;stroke-opacity:1"
             id="path181" /></g><g
           id="g183"
           transform="translate(256,204.4951)"><path
             d="M 0,0 V -76.384"
             style="fill:none;stroke:#000000;stroke-width:15;stroke-linecap:round;stroke-linejoin:round;stroke-miterlimit:10;stroke-dasharray:none;stroke-opacity:1"
             id="path185" /></g><g
           id="g187"
           transform="translate(437.7017,219.6362)"><path
             d="m 0,0 c -9.325,-9.325 -12.905,-22.211 -10.758,-34.278 0.355,-1.992 1.939,-3.576 3.93,-3.93 12.068,-2.147 24.954,1.433 34.279,10.757 9.324,9.325 12.904,22.211 10.757,34.279 -0.354,1.991 -1.938,3.575 -3.93,3.93 C 22.21,12.905 9.325,9.325 0,0 Z"
             style="fill:none;stroke:#000000;stroke-width:15;stroke-linecap:round;stroke-linejoin:round;stroke-miterlimit:10;stroke-dasharray:none;stroke-opacity:1"
             id="path189" /></g><g
           id="g191"
           transform="translate(414.9795,219.6362)"><path
             d="m 0,0 c 9.324,-9.325 12.904,-22.211 10.757,-34.278 -0.354,-1.992 -1.938,-3.576 -3.929,-3.93 -12.068,-2.147 -24.954,1.433 -34.279,10.757 -9.324,9.325 -12.904,22.211 -10.757,34.279 0.354,1.991 1.938,3.575 3.929,3.93 C -22.211,12.905 -9.325,9.325 0,0 Z"
             style="fill:none;stroke:#000000;stroke-width:15;stroke-linecap:round;stroke-linejoin:round;stroke-miterlimit:10;stroke-dasharray:none;stroke-opacity:1"
             id="path193" /></g><g
           id="g195"
           transform="translate(426.3403,204.4951)"><path
             d="M 0,0 V -76.384"
             style="fill:none;stroke:#000000;stroke-width:15;stroke-linecap:round;stroke-linejoin:round;stroke-miterlimit:10;stroke-dasharray:none;stroke-opacity:1"
             id="path197" /></g><g
           id="g199"
           transform="translate(352.5312,281.3701)"><path
             d="m 0,0 c -9.325,-9.325 -12.905,-22.211 -10.757,-34.278 0.354,-1.992 1.938,-3.576 3.929,-3.93 12.068,-2.147 24.954,1.433 34.279,10.757 9.324,9.325 12.904,22.211 10.757,34.279 -0.354,1.991 -1.938,3.575 -3.93,3.929 C 22.211,12.905 9.325,9.325 0,0 Z"
             style="fill:none;stroke:#000000;stroke-width:15;stroke-linecap:round;stroke-linejoin:round;stroke-miterlimit:10;stroke-dasharray:none;stroke-opacity:1"
             id="path201" /></g><g
           id="g203"
           transform="translate(329.8091,281.3701)"><path
             d="m 0,0 c 9.325,-9.325 12.905,-22.211 10.757,-34.278 -0.354,-1.992 -1.938,-3.576 -3.929,-3.93 -12.068,-2.147 -24.954,1.433 -34.279,10.757 -9.324,9.325 -12.904,22.211 -10.757,34.279 0.354,1.991 1.938,3.575 3.93,3.929 C -22.211,12.905 -9.325,9.325 0,0 Z"
             style="fill:none;stroke:#000000;stroke-width:15;stroke-linecap:round;stroke-linejoin:round;stroke-miterlimit:10;stroke-dasharray:none;stroke-opacity:1"
             id="path205" /></g><g
           id="g207"
           transform="translate(341.1704,266.2285)"><path
             d="M 0,0 V -76.383"
             style="fill:none;stroke:#000000;stroke-width:15;stroke-linecap:round;stroke-linejoin:round;stroke-miterlimit:10;stroke-dasharray:none;stroke-opacity:1"
             id="path209" /></g><g
           id="g211"
           transform="translate(182.1909,281.3701)"><path
             d="m 0,0 c -9.325,-9.325 -12.905,-22.211 -10.757,-34.278 0.354,-1.992 1.938,-3.576 3.929,-3.93 12.068,-2.147 24.954,1.433 34.279,10.757 9.324,9.325 12.904,22.211 10.757,34.279 -0.354,1.991 -1.938,3.575 -3.93,3.929 C 22.211,12.905 9.325,9.325 0,0 Z"
             style="fill:none;stroke:#000000;stroke-width:15;stroke-linecap:round;stroke-linejoin:round;stroke-miterlimit:10;stroke-dasharray:none;stroke-opacity:1"
             id="path213" /></g><g
           id="g215"
           transform="translate(159.4687,281.3701)"><path
             d="m 0,0 c 9.324,-9.325 12.905,-22.211 10.757,-34.278 -0.354,-1.992 -1.938,-3.576 -3.929,-3.93 -12.068,-2.147 -24.954,1.433 -34.279,10.757 -9.324,9.325 -12.904,22.211 -10.757,34.279 0.354,1.991 1.938,3.575 3.93,3.929 C -22.211,12.905 -9.325,9.325 0,0 Z"
             style="fill:none;stroke:#000000;stroke-width:15;stroke-linecap:round;stroke-linejoin:round;stroke-miterlimit:10;stroke-dasharray:none;stroke-opacity:1"
             id="path217" /></g><g
           id="g219"
           transform="translate(170.8296,266.2285)"><path
             d="M 0,0 V -76.383"
             style="fill:none;stroke:#000000;stroke-width:15;stroke-linecap:round;stroke-linejoin:round;stroke-miterlimit:10;stroke-dasharray:none;stroke-opacity:1"
             id="path221" /></g><g
           id="g223"
           transform="translate(54.3555,78.5283)"><path
             d="M 0,0 H 104.179"
             style="fill:none;stroke:#000000;stroke-width:15;stroke-linecap:round;stroke-linejoin:round;stroke-miterlimit:10;stroke-dasharray:none;stroke-opacity:1"
             id="path225" /></g><g
           id="g227"
           transform="translate(289.0811,78.5283)"><path
             d="M 0,0 H 104.178"
             style="fill:none;stroke:#000000;stroke-width:15;stroke-linecap:round;stroke-linejoin:round;stroke-miterlimit:10;stroke-dasharray:none;stroke-opacity:1"
             id="path229" /></g><g
           id="g231"
           transform="translate(446.3799,71.0283)"><path
             d="M 0,0 V 0 C -4.142,0 -7.5,3.358 -7.5,7.5 -7.5,11.642 -4.142,15 0,15 4.142,15 7.5,11.642 7.5,7.5 7.5,3.358 4.142,0 0,0"
             style="fill:#000000;fill-opacity:1;fill-rule:nonzero;stroke:none"
             id="path233" /></g><g
           id="g235"
           transform="translate(223.8076,71.0283)"><path
             d="M 0,0 V 0 C -4.142,0 -7.5,3.358 -7.5,7.5 -7.5,11.642 -4.142,15 0,15 4.142,15 7.5,11.642 7.5,7.5 7.5,3.358 4.142,0 0,0"
             style="fill:#000000;fill-opacity:1;fill-rule:nonzero;stroke:none"
             id="path237" /></g><g
           id="g239"
           transform="translate(504.5,102.2622)"><path
             d="m 0,0 v 53.562 c 0,13.807 -11.193,25 -25,25 h -318.91 c -13.807,0 -25,-11.193 -25,-25 V 25.849"
             style="fill:none;stroke:#000000;stroke-width:15;stroke-linecap:round;stroke-linejoin:round;stroke-miterlimit:10;stroke-dasharray:none;stroke-opacity:1"
             id="path241" /></g><g
           id="g243"
           transform="translate(385.8447,452.5498)"><path
             d="m 0,0 c 6.471,16.013 22.164,27.312 40.496,27.312 24.112,0 43.659,-19.547 43.659,-43.66 0,-24.112 -19.547,-43.659 -43.659,-43.659 -18.085,0 -33.601,10.995 -40.229,26.665"
             style="fill:none;stroke:#000000;stroke-width:15;stroke-linecap:round;stroke-linejoin:round;stroke-miterlimit:10;stroke-dasharray:none;stroke-opacity:1"
             id="path245" /></g><g
           id="g247"
           transform="translate(162.0864,350.0791)"><path
             d="m 0,0 h 78.362 c 4.675,0 8.714,3.241 9.761,7.796 C 92.91,28.625 76.319,48.979 54.984,48.547 44.635,62.896 27.786,72.246 8.743,72.246 c -19.042,0 -35.892,-9.35 -46.241,-23.699 C -58.828,48.979 -75.425,28.632 -70.636,7.796 -69.589,3.241 -65.55,0 -60.875,0 h 28.188"
             style="fill:none;stroke:#000000;stroke-width:15;stroke-linecap:round;stroke-linejoin:round;stroke-miterlimit:10;stroke-dasharray:none;stroke-opacity:1"
             id="path249" /></g><g
           id="g251"
           transform="translate(324.8271,127.2622)"><path
             d="m 0,0 h -292.327 c -13.807,0 -25,-11.193 -25,-25 v -60.124 c 0,-5.522 4.477,-10 10,-10 h 477 c 5.523,0 10,4.478 10,10 V -25 c 0,13.807 -11.193,25 -25,25 L 32.687,0"
             style="fill:none;stroke:#000000;stroke-width:15;stroke-linecap:round;stroke-linejoin:round;stroke-miterlimit:10;stroke-dasharray:none;stroke-opacity:1"
             id="path253" /></g></g></g></g></svg>
