<?xml version="1.0" encoding="UTF-8" standalone="no"?>
<!-- Created with Inkscape (http://www.inkscape.org/) -->

<svg
   version="1.1"
   id="svg135"
   xml:space="preserve"
   width="682.66669"
   height="682.66669"
   viewBox="0 0 682.66669 682.66669"
   xmlns="http://www.w3.org/2000/svg"
   xmlns:svg="http://www.w3.org/2000/svg"><defs
     id="defs139"><clipPath
       clipPathUnits="userSpaceOnUse"
       id="clipPath149"><path
         d="M 0,512 H 512 V 0 H 0 Z"
         id="path147" /></clipPath></defs><g
     id="g141"
     transform="matrix(1.3333333,0,0,-1.3333333,0,682.66667)"><g
       id="g143"><g
         id="g145"
         clip-path="url(#clipPath149)"><g
           id="g151"
           transform="translate(70.9409,97.6699)"><path
             d="m 0,0 v -15.96 c 0,-8.79 7.12,-15.92 15.91,-15.92 h 177.01"
             style="fill:none;stroke:#000000;stroke-width:15;stroke-linecap:round;stroke-linejoin:round;stroke-miterlimit:10;stroke-dasharray:none;stroke-opacity:1"
             id="path153" /></g><g
           id="g155"
           transform="translate(358.7808,472.6201)"><path
             d="M 0,0 H 17.01 C 25.8,0 32.93,-7.13 32.93,-15.92 V -219.994"
             style="fill:none;stroke:#000000;stroke-width:15;stroke-linecap:round;stroke-linejoin:round;stroke-miterlimit:10;stroke-dasharray:none;stroke-opacity:1"
             id="path157" /></g><g
           id="g159"
           transform="translate(157.1831,504.5)"><path
             d="m 0,0 h 185.678 c 8.79,0 15.92,-7.13 15.92,-15.92 v -15.96 -254.98"
             style="fill:none;stroke:#000000;stroke-width:15;stroke-linecap:round;stroke-linejoin:round;stroke-miterlimit:10;stroke-dasharray:none;stroke-opacity:1"
             id="path161" /></g><g
           id="g163"
           transform="translate(263.8608,97.6699)"><path
             d="m 0,0 h -192.92 -17.02 c -8.79,0 -15.92,7.13 -15.92,15.92 v 306.94"
             style="fill:none;stroke:#000000;stroke-width:15;stroke-linecap:round;stroke-linejoin:round;stroke-miterlimit:10;stroke-dasharray:none;stroke-opacity:1"
             id="path165" /></g><g
           id="g167"
           transform="translate(432.292,7.5)"><path
             d="m 0,0 h -126.726 c -23.034,0 -41.708,18.673 -41.708,41.707 v 126.726 c 0,23.035 18.674,41.708 41.708,41.708 H 0 c 23.034,0 41.707,-18.673 41.707,-41.708 V 41.707 C 41.707,18.673 23.034,0 0,0 Z"
             style="fill:none;stroke:#000000;stroke-width:15;stroke-linecap:round;stroke-linejoin:round;stroke-miterlimit:10;stroke-dasharray:none;stroke-opacity:1"
             id="path169" /></g><g
           id="g171"
           transform="translate(421.4478,128.0117)"><path
             d="m 0,0 -37.634,46.898 c -7.64,9.52 -22.13,9.52 -29.77,0 L -105.038,0 c -9.337,-11.021 -0.694,-29.225 13.817,-28.804 h 14.596 v -46.592 c 0,-5.261 4.264,-9.525 9.524,-9.525 h 29.164 c 5.26,0 9.524,4.264 9.524,9.525 v 46.592 h 14.596 C 0.691,-29.226 9.339,-11.022 0,0 Z"
             style="fill:none;stroke:#000000;stroke-width:15;stroke-linecap:round;stroke-linejoin:round;stroke-miterlimit:10;stroke-dasharray:none;stroke-opacity:1"
             id="path173" /></g><g
           id="g175"
           transform="translate(38.0024,420.5322)"><path
             d="M 0,0 84.108,83.968 V 15.917 C 84.108,7.126 76.981,0 68.191,0 Z"
             style="fill:none;stroke:#000000;stroke-width:15;stroke-linecap:round;stroke-linejoin:round;stroke-miterlimit:10;stroke-dasharray:none;stroke-opacity:1"
             id="path177" /></g><g
           id="g179"
           transform="translate(245.9995,427.4292)"><path
             d="m 0,0 h -70.428 c -9.051,0 -16.388,7.337 -16.388,16.388 v 0.034 c 0,9.051 7.337,16.389 16.388,16.389 H 0 c 9.051,0 16.388,-7.338 16.388,-16.389 V 16.388 C 16.388,7.337 9.051,0 0,0 Z"
             style="fill:none;stroke:#000000;stroke-width:15;stroke-linecap:round;stroke-linejoin:round;stroke-miterlimit:10;stroke-dasharray:none;stroke-opacity:1"
             id="path181" /></g><g
           id="g183"
           transform="translate(94.6367,363.9238)"><path
             d="M 0,0 H 207.834"
             style="fill:none;stroke:#000000;stroke-width:15;stroke-linecap:round;stroke-linejoin:round;stroke-miterlimit:10;stroke-dasharray:none;stroke-opacity:1"
             id="path185" /></g><g
           id="g187"
           transform="translate(94.6367,319.4512)"><path
             d="M 0,0 H 207.834"
             style="fill:none;stroke:#000000;stroke-width:15;stroke-linecap:round;stroke-linejoin:round;stroke-miterlimit:10;stroke-dasharray:none;stroke-opacity:1"
             id="path189" /></g><g
           id="g191"
           transform="translate(263.6597,274.979)"><path
             d="M 0,0 H 38.811"
             style="fill:none;stroke:#000000;stroke-width:15;stroke-linecap:round;stroke-linejoin:round;stroke-miterlimit:10;stroke-dasharray:none;stroke-opacity:1"
             id="path193" /></g><g
           id="g195"
           transform="translate(94.6367,274.979)"><path
             d="M 0,0 H 133.818"
             style="fill:none;stroke:#000000;stroke-width:15;stroke-linecap:round;stroke-linejoin:round;stroke-miterlimit:10;stroke-dasharray:none;stroke-opacity:1"
             id="path197" /></g><g
           id="g199"
           transform="translate(94.6367,230.5063)"><path
             d="M 0,0 H 90.625"
             style="fill:none;stroke:#000000;stroke-width:15;stroke-linecap:round;stroke-linejoin:round;stroke-miterlimit:10;stroke-dasharray:none;stroke-opacity:1"
             id="path201" /></g><g
           id="g203"
           transform="translate(94.6367,186.0342)"><path
             d="M 0,0 H 90.625"
             style="fill:none;stroke:#000000;stroke-width:15;stroke-linecap:round;stroke-linejoin:round;stroke-miterlimit:10;stroke-dasharray:none;stroke-opacity:1"
             id="path205" /></g></g></g></g></svg>
