<?xml version="1.0"?>
<svg xmlns="http://www.w3.org/2000/svg" viewBox="0 0 512 512" width="512" height="512"><g id="_OUTLINE" data-name="/ OUTLINE"><path d="M225.208,318.16211l8.63086,3.57715L239.17676,344h33.64648l5.33789-22.26074,8.62989-3.57715,19.584,12.001L330.16211,306.375l-12-19.583,3.57715-8.63086L344,272.82324V239.17676l-22.26074-5.33789-3.57715-8.62989,12.001-19.584L306.375,181.83789l-19.583,12-8.63086-3.57715L272.82324,168H239.17676l-5.33789,22.26074-8.62989,3.57715-19.584-12.001L181.83789,205.625l12,19.583-3.57715,8.63086L168,239.17676v33.64648l22.26074,5.33789,3.57715,8.62989-12.001,19.584L205.625,330.16211ZM201.9209,264.50293,184,260.20605V251.794l17.9209-4.29688,9.81933-23.69629-9.66992-15.78125,5.94922-5.95019,15.78125,9.67089,23.69629-9.81933L251.794,184h8.4121l4.29688,17.9209,23.69629,9.81933,15.78125-9.66992,5.95019,5.94922-9.67089,15.78125,9.81933,23.69629L328,251.794v8.4121l-17.9209,4.29688-9.81933,23.69629,9.66992,15.78125-5.94922,5.95019-15.78125-9.67089-23.69629,9.81933L260.20605,328H251.794l-4.29688-17.9209-23.69629-9.81933-15.78125,9.66992-5.95019-5.94922,9.67089-15.78125Z"/><path d="M256,288a32,32,0,1,0-32-32A32.03667,32.03667,0,0,0,256,288Zm0-48a16,16,0,1,1-16,16A16.01833,16.01833,0,0,1,256,240Z"/><path d="M448,347.35742l-64-36.57129-64,36.57129V440H448ZM400,392H368V376h32Zm-32,16h32v16H368Zm64,16H416V360H352v64H336V356.64258l48-27.42871,48,27.42871Z"/><path d="M128,240h24V224H128a96,96,0,1,1,96-96v24h16V128A112,112,0,1,0,128,240Z"/><path d="M288,128a96,96,0,1,1,96,96H360v16h24A112,112,0,1,0,272,128v24h16Z"/><path d="M224,384a96,96,0,1,1-96-96h24V272H128A112,112,0,1,0,240,384V360H224Z"/><path d="M384,272H360v16h24a96,96,0,1,1-96,96V360H272v24A112,112,0,1,0,384,272Z"/><path d="M72,400v32a24.0275,24.0275,0,0,0,24,24h64a24.0275,24.0275,0,0,0,24-24V400a24.11529,24.11529,0,0,0-9.60059-19.2002l-20.98632-15.74023,4.94531-14.835A31.96716,31.96716,0,0,0,160,340.10547V336a32,32,0,0,0-64,0v4.10547a31.97764,31.97764,0,0,0,1.6416,10.12012l4.94531,14.834L81.60059,380.7998A24.11249,24.11249,0,0,0,72,400Zm16,0a8.03671,8.03671,0,0,1,3.2002-6.39941l30.21289-22.66016-8.5918-25.77441A15.97642,15.97642,0,0,1,112,340.10547V336a16,16,0,0,1,32,0v4.10547a15.966,15.966,0,0,1-.82129,5.05957l-8.5918,25.77539,30.21289,22.66016A8.03671,8.03671,0,0,1,168,400v32a8.00917,8.00917,0,0,1-8,8H96a8.00917,8.00917,0,0,1-8-8Z"/><path d="M448,160V96a24.0275,24.0275,0,0,0-24-24H344a24.0275,24.0275,0,0,0-24,24v64a24.0275,24.0275,0,0,0,24,24h80A24.0275,24.0275,0,0,0,448,160ZM368,88h16v32H368Zm-32,72V96a8.00917,8.00917,0,0,1,8-8h8v48h48V88h24a8.00917,8.00917,0,0,1,8,8v64a8.00917,8.00917,0,0,1-8,8H344A8.00917,8.00917,0,0,1,336,160Z"/><path d="M96,56V90.23413L72,98.23438V160H64v16H192V160h-8V76.90039l-16,5.33325V56H152V87.56689l-16,5.33326V76.90039l-24,8.00024V56Zm72,43.09961V160H136V109.7666ZM120,160H88V109.76562l32-10.666Z"/></g></svg>
